<svg xmlns="http://www.w3.org/2000/svg" viewBox="0 0 164 25" fill="#a9a9a9"><path d="M16.22 16.04L8.11 8.02 16.22 0H8.11L0 8.02l4.055 4.055L8.11 16.04l4.055 3.964z"/><path d="M21.987 12.075L17.932 8.02l-4.055-3.965L9.912 8.02l8.02 8.02-8.11 8.02h8.11l4.055-3.965 4.055-4.055zM36.134 8.02c-1.171 0-2.163.36-2.883 1.171-.721.811-1.082 1.893-1.082 3.334s.36 2.523.991 3.334c.721.811 1.622 1.172 2.884 1.172.81 0 1.622-.18 2.613-.45v1.17a8.615 8.615 0 01-2.793.451c-1.622 0-2.884-.45-3.785-1.442-.901-.99-1.352-2.433-1.352-4.235 0-1.171.18-2.162.631-2.973.45-.811 1.082-1.532 1.802-1.983s1.713-.72 2.884-.72c1.171 0 2.163.18 3.064.63l-.541 1.081c-.72-.27-1.532-.54-2.433-.54zm11.264 7.118c0 .992-.36 1.713-1.082 2.253-.72.54-1.621.811-2.883.811-1.352 0-2.343-.18-3.064-.54V16.4c.45.18.991.36 1.442.45.45.09 1.081.18 1.622.18.901 0 1.532-.18 1.892-.45.45-.36.631-.81.631-1.351 0-.36-.09-.721-.27-.902-.18-.27-.45-.45-.811-.72-.36-.18-.901-.451-1.622-.721-.991-.36-1.802-.811-2.163-1.352-.45-.54-.63-1.171-.63-1.982 0-.811.36-1.532.99-2.073.631-.54 1.532-.72 2.524-.72 1.08 0 2.072.18 3.063.63l-.36 1.081a7.231 7.231 0 00-2.703-.54c-.721 0-1.172.18-1.622.45-.36.27-.541.721-.541 1.262 0 .36.09.72.18.9.18.271.36.451.721.632.36.18.811.45 1.532.72 1.171.451 1.982.902 2.433 1.352.54.54.72 1.172.72 1.892zm8.56 0c0 .992-.36 1.713-1.081 2.253s-1.622.811-2.884.811c-1.351 0-2.342-.18-3.063-.54V16.4c.45.18.99.36 1.441.45a8.95 8.95 0 001.622.18c.902 0 1.532-.18 1.893-.45.45-.36.63-.81.63-1.351 0-.36-.09-.721-.27-.902-.18-.27-.45-.45-.81-.72-.361-.18-.902-.451-1.623-.721-.991-.36-1.802-.811-2.162-1.352-.451-.54-.631-1.171-.631-1.982 0-.811.36-1.532.991-2.073.63-.54 1.532-.72 2.523-.72 1.081 0 2.073.18 3.064.63l-.36 1.081a7.231 7.231 0 00-2.704-.54c-.72 0-1.171.18-1.622.45-.36.27-.54.721-.54 1.262 0 .36.09.72.18.9.18.271.36.451.72.632.361.18.812.45 1.532.72 1.172.451 1.983.902 2.433 1.352.45.54.721 1.172.721 1.892zm11.264-2.793c0 1.802-.54 3.244-1.532 4.235-.991.991-2.433 1.532-4.325 1.532H57.76V7.03h3.785c1.802 0 3.154.45 4.145 1.351.991.901 1.532 2.253 1.532 3.965zm-3.064.09c0-.991-.18-1.802-.63-2.253-.361-.45-.992-.72-1.803-.72h-.9v6.217h.63c.901 0 1.532-.27 1.982-.81.541-.542.721-1.353.721-2.434zm9.011 5.857c-1.442 0-2.523-.36-3.334-1.171-.81-.721-1.171-1.802-1.171-3.244 0-1.442.36-2.523 1.081-3.334.72-.811 1.802-1.172 3.154-1.172 1.261 0 2.253.36 2.974.992.72.63 1.08 1.622 1.08 2.883v1.352h-5.316c0 .45.18.81.541 1.171.36.27.811.45 1.352.45s.99-.09 1.441-.18c.451-.09.902-.27 1.442-.54v2.163c-.45.27-.9.36-1.442.45-.54.09-1.08.18-1.802.18zm-.18-6.848c-.36 0-.63.09-.901.36-.27.18-.36.541-.45.992h2.522c0-.45-.09-.721-.36-.992-.09-.27-.36-.36-.811-.36zm12.255 4.055c0 .901-.27 1.622-.901 2.072-.63.451-1.532.721-2.703.721-.631 0-1.172 0-1.622-.09-.451-.09-.992-.18-1.442-.36v-2.343c.45.18.991.36 1.532.54.54.09.99.18 1.441.18.631 0 .992-.18.992-.45 0-.18-.09-.27-.27-.36-.18-.09-.722-.36-1.533-.721-.81-.36-1.351-.721-1.622-1.081-.27-.451-.45-.902-.45-1.532 0-.811.27-1.442.901-1.893.63-.45 1.442-.63 2.613-.63.54 0 1.082.09 1.622.18s.991.27 1.532.54l-.81 1.893a5.21 5.21 0 00-1.262-.45c-.451-.09-.811-.18-1.082-.18-.45 0-.72.09-.72.36 0 .18.09.27.27.36.18.09.63.27 1.441.63.631.271 1.082.451 1.352.722.27.27.54.54.63.81 0 .18.091.631.091 1.082zm1.622-8.11c0-.45.09-.811.36-.991.27-.18.631-.36 1.172-.36.54 0 .991.09 1.171.36.27.18.36.54.36.991 0 .901-.54 1.262-1.621 1.262-.992.09-1.442-.36-1.442-1.262zm2.974 10.723h-2.974v-8.56h2.974v8.56zm10.182-8.56v1.441l-1.171.451c.18.27.27.63.27.991 0 .901-.36 1.622-.991 2.163-.631.54-1.622.72-2.884.72-.36 0-.54 0-.72-.09-.09.09-.09.27-.09.361 0 .18.09.27.36.36.27.09.54.09.9.09h1.442c1.893 0 2.884.812 2.884 2.434 0 1.08-.45 1.892-1.352 2.432-.9.541-2.162.902-3.784.902-1.172 0-2.163-.18-2.794-.631a1.932 1.932 0 01-.99-1.712c0-.991.63-1.712 1.891-1.983-.27-.09-.45-.27-.72-.54-.18-.27-.27-.45-.27-.721s.09-.54.18-.721c.18-.18.45-.45.9-.721-.45-.18-.81-.54-1.08-.901-.271-.45-.361-.901-.361-1.532 0-.901.36-1.622.991-2.163.63-.54 1.532-.81 2.703-.81.18 0 .45 0 .811.09.36 0 .631.09.811.09h3.064zm-6.488 9.641c0 .27.09.451.36.631s.631.18 1.082.18c.72 0 1.261-.09 1.712-.27.45-.18.63-.45.63-.72s-.09-.361-.36-.451a3.53 3.53 0 00-1.171-.18h-1.172c-.36 0-.54.09-.81.18-.18.18-.27.36-.27.63zm.901-6.848c0 .901.27 1.352.901 1.352.27 0 .54-.09.631-.36.18-.181.27-.541.27-.992 0-.901-.27-1.352-.9-1.352-.541 0-.902.451-.902 1.352zm12.255 5.767v-4.686c0-.54-.09-.99-.27-1.261-.18-.27-.45-.45-.811-.45-.54 0-.901.18-1.082.63-.18.36-.36 1.081-.36 2.073v3.784h-2.974v-8.56h2.253l.36 1.081h.18c.271-.36.632-.72 1.082-.901.45-.18.991-.27 1.532-.27.991 0 1.712.27 2.253.81.54.541.81 1.352.81 2.343v5.587h-2.973v-.18zm12.435 0l-1.351-3.514h-4.416l-1.351 3.514h-1.262L115.16 7.03h1.082l4.325 11.083h-1.442zm-1.802-4.686l-1.261-3.424c-.18-.45-.36-.991-.541-1.622-.09.45-.27.991-.45 1.622l-1.262 3.424h3.514zm11.264 4.686l-1.532-4.866c-.09-.27-.27-.991-.54-1.982h-.09c-.181.9-.361 1.532-.541 2.072l-1.532 4.866h-1.442l-2.253-8.29h1.352c.54 2.073.9 3.695 1.261 4.776.27 1.081.45 1.802.45 2.163h.091c.09-.27.18-.631.27-1.082.09-.45.27-.81.36-1.081l1.533-4.776h1.351l1.442 4.776c.27.901.45 1.622.54 2.163h.09c0-.18.09-.451.181-.811.09-.36.63-2.433 1.532-6.128h1.261l-2.252 8.29h-1.532v-.09zm10.362 0l-.27-1.171h-.09c-.45.54-.811.9-1.262 1.081-.45.18-.9.27-1.531.27-.811 0-1.442-.18-1.893-.63-.45-.451-.72-.992-.72-1.803 0-1.712 1.351-2.523 4.054-2.613l1.442-.09v-.54c0-.631-.18-1.172-.45-1.442s-.721-.45-1.352-.45c-.721 0-1.442.18-2.343.63l-.36-.991c.45-.18.81-.36 1.351-.541.45-.09.991-.18 1.442-.18.991 0 1.712.18 2.163.63.45.451.72 1.172.72 2.073v5.677h-.9v.09zm-2.883-.901c.81 0 1.352-.18 1.802-.63.45-.451.63-.992.63-1.803v-.72l-1.26.09c-.992 0-1.713.18-2.163.45-.45.27-.631.72-.631 1.261 0 .45.18.811.45.992.36.27.721.36 1.172.36zm10.182-7.57c.36 0 .721 0 .992.09l-.18 1.172c-.361-.09-.631-.09-.902-.09-.63 0-1.261.27-1.712.811-.45.54-.72 1.262-.72 2.073v4.415h-1.262v-8.29h.99l.181 1.532h.09c.27-.54.721-.991 1.082-1.262.45-.27.9-.45 1.441-.45zm8.2 7.39c-.63.81-1.532 1.261-2.703 1.261-1.081 0-1.892-.36-2.523-1.081-.63-.72-.901-1.802-.901-3.154s.27-2.433.901-3.154c.63-.72 1.442-1.171 2.523-1.171 1.081 0 1.982.45 2.613 1.261h.09l-.09-.63V6.308h1.262v11.804h-.991l-.18-1.081zm-2.523.18c.901 0 1.442-.27 1.893-.72.36-.451.54-1.262.54-2.254v-.27c0-1.171-.18-1.982-.63-2.523-.361-.54-.992-.72-1.893-.72-.72 0-1.261.27-1.712.9-.36.54-.63 1.352-.63 2.433 0 1.081.18 1.892.54 2.433.54.45 1.081.721 1.892.721zm11.715-1.352c0 .811-.27 1.352-.902 1.803-.54.45-1.351.63-2.433.63-1.08 0-1.982-.18-2.613-.54V16.58c.36.18.811.36 1.262.45.45.09.9.181 1.351.181.631 0 1.172-.09 1.532-.27.36-.18.541-.541.541-.992 0-.36-.18-.63-.45-.81-.27-.27-.812-.541-1.623-.812-.81-.27-1.351-.54-1.621-.72-.36-.18-.541-.451-.721-.721-.18-.27-.27-.631-.27-.991 0-.631.27-1.172.81-1.622s1.262-.631 2.253-.631c.901 0 1.802.18 2.613.54l-.45.992c-.811-.36-1.622-.541-2.253-.541-.63 0-1.081.09-1.352.27-.27.18-.45.45-.45.811 0 .18.09.45.18.54.09.181.27.271.54.451s.721.36 1.442.631c.992.36 1.622.721 1.983 1.082.45.45.63.9.63 1.441z"/></svg>