<svg xmlns="http://www.w3.org/2000/svg" viewBox="0 0 604.5 75.667" fill="#a9a9a9"><path d="M35.286 0c-5.378 0-10.3.976-14.63 2.889-4.329 1.913-8.075 4.586-11.132 7.947-3.049 3.361-5.426 7.371-7.058 11.925C.833 27.306 0 32.276 0 37.542c0 5.01.784 9.702 2.32 13.942 1.537 4.25 3.762 7.973 6.611 11.061 2.841 3.09 6.33 5.539 10.364 7.283 4.025 1.736 8.563 2.617 13.493 2.617 6.875 0 13.085-1.281 18.463-3.803l.352-.168v-7.676l-.912.506c-4.914 2.721-10.692 4.098-17.183 4.098-4.209 0-7.955-.752-11.116-2.24-3.169-1.498-5.858-3.537-7.979-6.082-2.129-2.555-3.769-5.578-4.858-8.988-1.096-3.434-1.648-7.139-1.648-11.021 0-4.33.616-8.379 1.84-12.028 1.217-3.634 3.001-6.827 5.306-9.492 2.297-2.657 5.17-4.754 8.524-6.25 3.361-1.497 7.266-2.249 11.612-2.249 5.482 0 10.7 1.224 15.526 3.633l.888.44v-8.24l-.391-.155C46.554.92 41.192 0 35.286 0m64.841 42.201c-1.449-1.617-3.289-3.186-5.466-4.667-2.153-1.456-4.706-2.977-7.595-4.521-2.729-1.457-5.074-2.77-6.963-3.897-1.848-1.104-3.361-2.233-4.489-3.345-1.105-1.089-1.913-2.249-2.409-3.466-.496-1.216-.745-2.697-.745-4.401 0-1.777.369-3.346 1.097-4.674a10.008 10.008 0 013.033-3.369c1.297-.921 2.833-1.625 4.562-2.097 1.752-.48 3.641-.72 5.626-.72 5.338 0 10.052 1.152 14.005 3.425l.921.528V2.465l-.385-.16C97.614.776 92.964 0 87.498 0c-3.121 0-6.098.432-8.851 1.28-2.761.849-5.21 2.081-7.275 3.674a18.241 18.241 0 00-4.97 5.842c-1.224 2.289-1.849 4.906-1.849 7.779 0 2.273.329 4.33.977 6.114.648 1.793 1.672 3.49 3.049 5.026 1.353 1.521 3.121 3.024 5.25 4.474 2.105 1.424 4.666 2.961 7.611 4.563a270.914 270.914 0 016.899 3.953c1.904 1.146 3.497 2.305 4.745 3.449 1.209 1.129 2.113 2.346 2.689 3.617.569 1.281.857 2.803.857 4.531 0 3.607-1.193 6.297-3.65 8.201-2.473 1.92-6.29 2.896-11.34 2.896-1.305 0-2.697-.118-4.13-.353a31.007 31.007 0 01-4.305-1.032 30.772 30.772 0 01-4.186-1.695 24.151 24.151 0 01-3.721-2.267l-.985-.745v9.062l.289.188c.904.563 2.088 1.096 3.521 1.573 1.4.468 2.905.884 4.458 1.22 1.544.336 3.097.604 4.617.772 1.521.188 2.857.271 3.962.271 3.369 0 6.506-.397 9.331-1.179 2.849-.782 5.338-1.969 7.411-3.506a16.195 16.195 0 004.89-5.914c1.16-2.358 1.745-5.131 1.745-8.219 0-2.242-.368-4.313-1.105-6.154-.728-1.836-1.84-3.588-3.305-5.22m55.798 5.226c-.728-1.842-1.841-3.594-3.305-5.227-1.449-1.617-3.289-3.188-5.466-4.667-2.153-1.455-4.706-2.977-7.595-4.521-2.729-1.457-5.074-2.77-6.963-3.897-1.849-1.104-3.361-2.233-4.49-3.345-1.104-1.089-1.912-2.249-2.408-3.466-.497-1.216-.745-2.697-.745-4.401 0-1.777.368-3.345 1.097-4.674a9.998 9.998 0 013.033-3.369c1.296-.921 2.833-1.625 4.562-2.097 1.752-.48 3.641-.72 5.626-.72 5.338 0 10.051 1.152 14.005 3.425l.92.528V2.465l-.384-.16C150.107.776 145.457 0 139.991 0c-3.121 0-6.098.432-8.851 1.28-2.761.849-5.21 2.081-7.275 3.674a18.229 18.229 0 00-4.97 5.842c-1.225 2.289-1.849 4.906-1.849 7.779 0 2.273.328 4.33.977 6.114.648 1.793 1.672 3.49 3.049 5.026 1.352 1.521 3.121 3.024 5.25 4.474 2.105 1.426 4.666 2.961 7.611 4.563a268.962 268.962 0 016.898 3.953c1.905 1.146 3.498 2.305 4.746 3.451 1.209 1.127 2.113 2.344 2.689 3.615.568 1.281.856 2.803.856 4.531 0 3.607-1.192 6.297-3.649 8.201-2.473 1.92-6.29 2.896-11.34 2.896-1.305 0-2.697-.118-4.13-.353a31.007 31.007 0 01-4.305-1.032 30.72 30.72 0 01-4.186-1.695 24.104 24.104 0 01-3.721-2.267l-.985-.743v9.06l.288.188c.905.563 2.089 1.096 3.522 1.573 1.4.468 2.905.884 4.457 1.22 1.545.336 3.097.604 4.618.772 1.521.188 2.857.271 3.962.271 3.369 0 6.506-.397 9.331-1.179 2.849-.782 5.338-1.969 7.411-3.506a16.205 16.205 0 004.89-5.914c1.16-2.358 1.744-5.129 1.744-8.219 0-2.236-.368-4.308-1.104-6.148M292.754 1.176h7.619v70.091h-7.619zm157.188 57.355c-.062-.088-44.392-57.354-44.392-57.354h-7.992v70.091h7.617s-.021-56.789-.064-57.822c.021.032 44.896 57.822 44.896 57.822h7.563V1.176h-7.666c.005 0 .007 56.907.038 57.355m-78.572 0c-.058-.088-44.386-57.354-44.386-57.354h-7.993v70.091h7.616s-.022-56.789-.069-57.822c.022.032 44.901 57.822 44.901 57.822h7.563V1.176h-7.666s.002 56.907.034 57.355m112.392-19.242h29.317v-6.997h-29.317V8.267h35.334v-7.09h-42.953v70.09h44.488v-7.043h-36.869zm90.387 9.746a66.726 66.726 0 00-2.229-3.873 27.597 27.597 0 00-2.186-3.041 16.072 16.072 0 00-2.32-2.297 10.318 10.318 0 00-1.408-.943c1.945-.545 3.729-1.275 5.338-2.188 1.992-1.137 3.705-2.537 5.107-4.17a17.69 17.69 0 003.256-5.642c.76-2.105 1.146-4.442 1.146-6.931 0-3.089-.602-5.85-1.77-8.195-1.178-2.345-2.754-4.321-4.707-5.874-1.938-1.545-4.178-2.729-6.658-3.513a25.341 25.341 0 00-7.691-1.185h-24.345v70.09h7.618V41.304h10.861c1.377 0 2.633.16 3.744.48a9.29 9.29 0 013.082 1.569c.977.746 1.936 1.769 2.854 3.021.938 1.289 1.92 2.906 2.936 4.826l10.368 19.731.181.325h8.891l-12.068-22.221zM543.305 8.268h15.23c4.688 0 8.307 1.104 10.756 3.273 2.426 2.161 3.656 5.178 3.656 8.98 0 2.112-.359 4.033-1.08 5.714-.711 1.672-1.729 3.121-3.021 4.297-1.289 1.194-2.873 2.114-4.707 2.761-1.848.642-3.914.97-6.137.97H543.3l.005-25.995zM168.062 1.177l47.094 70.078 4.089-6-43.012-64.078zm104.125 0L233.303 59.21l-28.114-42.321h-8.271l36.478 54.374 46.978-70.086z"/><path d="M262.07 1.177h-8.175l-24.679 36.937 4.057 6.055z"/></svg>