<svg xmlns="http://www.w3.org/2000/svg" fill="#a9a9a9" viewBox="0 0 390.844 129.958"><path d="M113.944 34.258a6.495 6.495 0 01-.141-.223c-2.699-4.455-11.759-11.416-24.228-18.6C76.957 8.158 66.33 3.803 61.146 3.783h-.1l-.019-.002c-5.19.053-15.774 4.416-28.354 11.693-12.634 7.309-21.722 14.338-24.308 18.803l-.018.031C5.74 38.85 4.251 49.949 4.263 64.768c.012 14.496 1.468 25.5 3.993 30.199l.108.201.049.09c2.566 4.438 11.666 11.459 24.328 18.758 12.639 7.281 23.267 11.638 28.427 11.653 5.196-.004 15.827-4.376 28.475-11.694 12.772-7.383 21.622-14.221 24.282-18.76.027-.045.053-.088.08-.129 2.545-4.514 4.059-15.861 4.049-30.404-.012-14.567-1.549-25.93-4.11-30.424z"/><path fill="#fff" d="M65.152 52.592h-6.817c-1.887 0-3.528.683-4.876 2.027-1.347 1.351-2.029 2.998-2.029 4.898v17.225h4.338v-7.307h11.99v7.307h4.338V59.518c0-1.902-.688-3.551-2.041-4.898-1.356-1.347-3.005-2.028-4.903-2.028zm-9.385 6.926c0-.716.25-1.312.764-1.826.512-.512 1.101-.76 1.804-.76h6.817c.717 0 1.318.248 1.84.759.521.515.766 1.095.766 1.827v5.597h-11.99v-5.597zm-24.66-6.849H17.852v24.338h13.255c5.227 0 9.475-4.25 9.475-9.477v-5.388c0-5.222-4.249-9.473-9.475-9.473zm-8.85 4.427h8.85a5.054 5.054 0 015.049 5.047v5.388a5.056 5.056 0 01-5.049 5.05h-8.85V57.096zm82.123-4.338h-4.119v15.505L87.537 52.875l-.098-.119h-3.436v24.023h4.45V61.021l12.775 15.621.099.121h3.381V52.758z"/><path d="M145.141 39.056h8.286a12.7 12.7 0 014.008.639c1.287.426 2.426 1.074 3.416 1.945s1.781 1.965 2.375 3.281c.595 1.317.892 2.866.892 4.647 0 1.802-.341 3.361-1.024 4.677-.684 1.317-1.564 2.406-2.643 3.267a11.294 11.294 0 01-3.594 1.931c-1.317.426-2.609.639-3.876.639h-7.84V39.056zm6.533 17.639c1.168 0 2.272-.134 3.312-.4 1.039-.268 1.945-.684 2.717-1.248a5.905 5.905 0 001.826-2.197c.446-.9.669-1.994.669-3.281 0-1.267-.198-2.355-.595-3.267-.396-.91-.945-1.648-1.647-2.212-.703-.564-1.534-.98-2.495-1.247-.96-.268-2.014-.401-3.162-.401h-3.416v14.254h2.791zm15.917-17.639h3.742v21.025h-3.742V39.056zm27.025 19.481c-2.594 1.386-5.494 2.078-8.701 2.078-1.623 0-3.113-.263-4.469-.787-1.357-.524-2.525-1.267-3.506-2.227-.979-.96-1.746-2.113-2.301-3.46-.555-1.346-.832-2.841-.832-4.484 0-1.683.277-3.212.832-4.588s1.322-2.549 2.301-3.519c.98-.97 2.148-1.718 3.506-2.242 1.355-.524 2.846-.787 4.469-.787 1.604 0 3.107.193 4.514.579s2.662 1.074 3.771 2.063l-2.762 2.792c-.674-.653-1.49-1.158-2.449-1.515a8.69 8.69 0 00-3.045-.534c-1.088 0-2.074.192-2.955.579a6.73 6.73 0 00-2.271 1.604 7.309 7.309 0 00-1.471 2.391 8.206 8.206 0 00-.52 2.939c0 1.129.174 2.168.52 3.118.348.95.838 1.772 1.471 2.465a6.84 6.84 0 002.271 1.633c.881.396 1.867.595 2.955.595.951 0 1.846-.09 2.688-.268.842-.179 1.59-.455 2.242-.832v-4.959h-4.305v-3.385h8.047v10.751zm4.336-19.481h3.742v21.025h-3.742V39.056zm12.651 3.385h-6.443v-3.386h16.631v3.386h-6.445v17.64h-3.742v-17.64zm16.808-3.385h3.238l9.057 21.025h-4.275l-1.961-4.811h-9.117l-1.9 4.811h-4.188l9.146-21.025zm4.752 13.006l-3.236-8.552-3.297 8.552h6.533zm9.889-13.006h3.742v17.64h8.939v3.386h-12.682V39.056zm31.004 0h3.236l9.059 21.025h-4.277l-1.959-4.811h-9.117l-1.9 4.811h-4.188l9.146-21.025zm4.752 13.006l-3.238-8.552-3.295 8.552h6.533zm28.568 6.475c-2.594 1.386-5.494 2.078-8.701 2.078-1.623 0-3.113-.263-4.471-.787-1.355-.524-2.523-1.267-3.504-2.227-.979-.96-1.746-2.113-2.301-3.46-.555-1.346-.832-2.841-.832-4.484 0-1.683.277-3.212.832-4.588s1.322-2.549 2.301-3.519c.98-.97 2.148-1.718 3.504-2.242 1.357-.524 2.848-.787 4.471-.787 1.604 0 3.107.193 4.514.579s2.662 1.074 3.771 2.063l-2.762 2.792c-.674-.653-1.49-1.158-2.449-1.515a8.699 8.699 0 00-3.045-.534c-1.09 0-2.074.192-2.955.579a6.73 6.73 0 00-2.271 1.604 7.275 7.275 0 00-1.471 2.391 8.206 8.206 0 00-.52 2.939c0 1.129.174 2.168.52 3.118.348.95.836 1.772 1.471 2.465a6.84 6.84 0 002.271 1.633c.881.396 1.865.595 2.955.595.951 0 1.846-.09 2.688-.268.842-.179 1.59-.455 2.242-.832v-4.959h-4.307v-3.385h8.049v10.751zm4.424-19.481h13.93v3.386h-10.188v5.167h9.652v3.386h-9.652v5.701h10.721v3.386H311.8V39.056zm18.144 0h4.961l10.186 15.62h.059v-15.62h3.742v21.025h-4.752l-10.393-16.125h-.061v16.125h-3.742V39.056zm38.075 4.929c-.773-.831-1.52-1.385-2.242-1.663a6.092 6.092 0 00-2.184-.415c-1.09 0-2.074.192-2.955.579a6.73 6.73 0 00-2.271 1.604 7.275 7.275 0 00-1.471 2.391 8.206 8.206 0 00-.52 2.939c0 1.129.174 2.168.52 3.118.348.95.836 1.772 1.471 2.465a6.84 6.84 0 002.271 1.633c.881.396 1.865.595 2.955.595.852 0 1.678-.203 2.48-.609.801-.405 1.549-1.054 2.242-1.945l3.088 2.198c-.951 1.307-2.109 2.257-3.475 2.851s-2.82.891-4.365.891c-1.623 0-3.113-.263-4.471-.787-1.355-.524-2.523-1.267-3.504-2.227-.979-.96-1.746-2.113-2.301-3.46-.555-1.346-.832-2.841-.832-4.484 0-1.683.277-3.212.832-4.588s1.322-2.549 2.301-3.519c.98-.97 2.148-1.718 3.504-2.242 1.357-.524 2.848-.787 4.471-.787 1.426 0 2.746.253 3.965.758 1.217.504 2.35 1.361 3.4 2.568l-2.909 2.136zm11.046 7.098l-7.9-12.027h4.693l5.166 8.375 5.229-8.375h4.453l-7.898 12.027v8.998h-3.742v-8.998zM145.141 69.765h4.96l10.186 15.62h.06v-15.62h3.741v21.024h-4.751l-10.394-16.125h-.061v16.125h-3.741V69.765zm23.638 0h13.929v3.386H172.52v5.167h9.652v3.385h-9.652v5.702h10.721v3.385h-14.462V69.765zm22.452 3.385h-6.445v-3.386h16.631v3.386h-6.445v17.639h-3.74V73.15zm10.393-3.385h4.098l3.951 15.145h.059l4.723-15.145h3.682l4.633 15.145h.061l4.127-15.145h3.801l-6.117 21.024h-3.564l-4.869-16.006h-.061l-4.869 16.006h-3.445l-6.21-21.024zm30.352 10.601c0-1.683.275-3.212.83-4.588s1.322-2.549 2.303-3.52c.979-.97 2.146-1.717 3.504-2.242 1.355-.523 2.846-.786 4.469-.786 1.645-.02 3.148.223 4.514.728 1.367.505 2.543 1.242 3.533 2.212.99.971 1.764 2.138 2.316 3.504.555 1.366.832 2.891.832 4.573 0 1.644-.277 3.139-.832 4.484-.553 1.347-1.326 2.505-2.316 3.475s-2.166 1.728-3.533 2.271c-1.365.544-2.869.826-4.514.847-1.623 0-3.113-.263-4.469-.787-1.357-.524-2.525-1.267-3.504-2.228-.98-.96-1.748-2.113-2.303-3.459-.555-1.346-.83-2.84-.83-4.484zm3.92-.237c0 1.128.172 2.167.52 3.117a7.318 7.318 0 001.469 2.465 6.85 6.85 0 002.273 1.634c.879.396 1.865.594 2.953.594 1.09 0 2.08-.197 2.971-.594a6.803 6.803 0 002.287-1.634 7.308 7.308 0 001.469-2.465c.346-.95.52-1.989.52-3.117 0-1.05-.174-2.029-.52-2.94a7.302 7.302 0 00-1.469-2.391c-.635-.683-1.396-1.218-2.287-1.604s-1.881-.579-2.971-.579c-1.088 0-2.074.193-2.953.579a6.751 6.751 0 00-2.273 1.604 7.291 7.291 0 00-1.469 2.391c-.349.911-.52 1.89-.52 2.94zm21.945-10.364h7.305c1.01 0 1.986.094 2.926.282s1.777.51 2.51.965a5.061 5.061 0 011.752 1.841c.436.772.654 1.753.654 2.94 0 1.524-.422 2.802-1.264 3.831s-2.043 1.653-3.607 1.87l5.582 9.295h-4.514l-4.869-8.908h-2.732v8.908h-3.742V69.765zm6.652 8.909c.535 0 1.068-.025 1.604-.074.535-.05 1.025-.168 1.471-.356s.807-.476 1.084-.861c.275-.387.414-.926.414-1.619 0-.613-.129-1.108-.385-1.484a2.412 2.412 0 00-1.01-.847 4.648 4.648 0 00-1.381-.371c-.506-.06-.996-.089-1.471-.089h-3.236v5.702h2.91zm12.057-8.909h3.742v8.909h.178l8.701-8.909h5.049l-9.83 9.711 10.482 11.313h-5.256l-9.117-10.334h-.207v10.334h-3.742V69.765z"/></svg>