<svg xmlns="http://www.w3.org/2000/svg" viewBox="0 0 85.11 37.86" fill="#8b8b8b"><path d="M20 26.71v6.16h-2v-15.2h5.18A4.71 4.71 0 0126.6 19a4.4 4.4 0 010 6.44 4.71 4.71 0 01-3.36 1.29zm0-7.17v5.3h3.27A2.66 2.66 0 0026 22.19a2.7 2.7 0 00-2.71-2.65zm13.22 2.59a4.85 4.85 0 013.42 1.15 4.13 4.13 0 011.25 3.18v6.41H36v-1.45h-.08a3.73 3.73 0 01-3.23 1.79 4.18 4.18 0 01-2.87-1 3.23 3.23 0 01-1.16-2.55 3.09 3.09 0 011.22-2.57 5.18 5.18 0 013.26-.95 5.79 5.79 0 012.86.63v-.44a2.2 2.2 0 00-.8-1.73 2.75 2.75 0 00-1.89-.71 3 3 0 00-2.59 1.38L29 24.16a4.79 4.79 0 014.22-2.03zm-2.52 7.55a1.57 1.57 0 00.64 1.32 2.38 2.38 0 001.52.51 3.13 3.13 0 002.2-.92 2.85 2.85 0 001-2.14 4 4 0 00-2.54-.72 3.32 3.32 0 00-2 .57 1.7 1.7 0 00-.82 1.38zm9.4-7.21H42v1.69h.08c.58-1.33 1.78-2 3.59-2h.41v2l-.88-.09a3.13 3.13 0 00-2.24.84 2.85 2.85 0 00-.88 2.14v5.73H40.1zM52.29 33a3 3 0 01-2.12-.79 2.91 2.91 0 01-.85-2.18v-5.78h-1.83v-1.78h1.83v-3.19h2v3.19h2.55v1.78h-2.6v5.18a1.9 1.9 0 00.4 1.41 1.31 1.31 0 00.91.37 2.31 2.31 0 00.46-.05 2.59 2.59 0 00.42-.14l.61 1.74a5.08 5.08 0 01-1.78.24zm3.5-10.53h1.87v1.44h.08a3.55 3.55 0 011.37-1.28 4 4 0 011.92-.5A3.82 3.82 0 0164 23.22a4.34 4.34 0 011 3.11v6.54h-2v-6.41a2.3 2.3 0 00-2.57-2.55 2.42 2.42 0 00-1.95.94 3.46 3.46 0 00-.79 2.26v5.76h-2zM72 33.21a5 5 0 01-3.78-1.57 5.56 5.56 0 01-1.49-4 5.61 5.61 0 011.45-4 5.19 5.19 0 017.37-.09 6 6 0 011.37 4.2v.21H68.7a3.39 3.39 0 001 2.46 3.29 3.29 0 005.3-.86l1.74.85a5.2 5.2 0 01-1.94 2.06 5.41 5.41 0 01-2.8.74zm-3.12-6.8h6a2.55 2.55 0 00-.88-1.79 3.1 3.1 0 00-2.13-.71 2.84 2.84 0 00-1.9.68 3.24 3.24 0 00-1.12 1.82zm11.75 6.46h-1.95v-10.4h1.87v1.69h.08a2.86 2.86 0 011.22-1.41 3.39 3.39 0 011.82-.58 3.67 3.67 0 011.44.25l-.59 1.89a3.24 3.24 0 00-1.15-.15 2.5 2.5 0 00-1.92.9 2.94 2.94 0 00-.82 2.08zM22.49 8.78v1.33h3.17a2.78 2.78 0 01-1 2 3.56 3.56 0 01-4.66-.39 3.42 3.42 0 01-1-2.5 3.42 3.42 0 011-2.5 3.36 3.36 0 012.48-1 3.41 3.41 0 012.39.95l.94-.94a4.68 4.68 0 00-3.33-1.33A4.88 4.88 0 0020 5a4.81 4.81 0 00-1.82 1.79A4.77 4.77 0 0020 13.41a4.79 4.79 0 002.46.67 4.48 4.48 0 003.25-1.24A4.23 4.23 0 0027 9.61a4.15 4.15 0 000-.83zm8.14-.96A3.07 3.07 0 0027.5 11a3.14 3.14 0 106.27 0 3.09 3.09 0 00-3.14-3.13zm1.25 4.48a1.72 1.72 0 01-2.5 0 1.89 1.89 0 01-.51-1.3 1.86 1.86 0 01.51-1.35 1.73 1.73 0 012.51 0A1.86 1.86 0 0132.4 11a1.93 1.93 0 01-.52 1.3zm16.24-7.6h1.37v9.19h-1.37zM37.48 7.82A3.07 3.07 0 0034.34 11a3.14 3.14 0 106.28 0 3.11 3.11 0 00-3.14-3.13zm1.24 4.48a1.64 1.64 0 01-1.24.54 1.66 1.66 0 01-1.26-.54 1.89 1.89 0 01-.51-1.3 1.86 1.86 0 01.51-1.35 1.66 1.66 0 011.26-.54 1.64 1.64 0 011.25.54 1.86 1.86 0 01.51 1.35 1.89 1.89 0 01-.52 1.3zm14.54.54a1.59 1.59 0 01-1.51-.94l4.18-1.73-.15-.36a3.24 3.24 0 00-.43-.8 3.1 3.1 0 00-.61-.64A2.63 2.63 0 0054 8a2.49 2.49 0 00-.87-.15 2.82 2.82 0 00-2.13.86 3.16 3.16 0 00-.84 2.29 3.07 3.07 0 00.89 2.23 3.15 3.15 0 004.82-.49L54.8 12a1.77 1.77 0 01-1.54.84zM52 9.55A1.62 1.62 0 0153.16 9a1.39 1.39 0 01.72.19 1 1 0 01.44.48l-2.8 1.16A1.72 1.72 0 0152 9.55zm-6.13-1.03a2.08 2.08 0 00-1.65-.7 2.86 2.86 0 00-2.11.93 3.18 3.18 0 000 4.41 2.9 2.9 0 002.11.92 2.06 2.06 0 001.65-.71v.32c0 1.31-.55 2-1.67 2a1.5 1.5 0 01-.94-.31 1.85 1.85 0 01-.63-.8l-1.2.5a3.55 3.55 0 00.45.75 3 3 0 00.64.58 3.13 3.13 0 00.78.38 3 3 0 00.9.13 2.86 2.86 0 002.19-.92 3.45 3.45 0 00.79-2.41V8h-1.31zm-.39 3.79a1.52 1.52 0 01-1.18.53 1.62 1.62 0 01-1.24-.54 1.87 1.87 0 01-.5-1.34 1.92 1.92 0 01.51-1.35 1.62 1.62 0 011.23-.55 1.5 1.5 0 011.18.54A2 2 0 0146 11a2 2 0 01-.52 1.31zM0 0h9.96v37.86H0z"/></svg>